<svg xmlns="http://www.w3.org/2000/svg" width="1370" height="765" viewBox="0 0 1370 765">
<g>
<path d="M 478.97 661.01 L 456.09 705.50 L 384.05 705.76 L 312.00 706.01 L 312.00 690.00 L 347.25 689.99 L 382.50 689.98 L 402.00 652.27 L 402.00 368.12 L 410.25 363.21 C414.79,360.52 427.95,352.55 439.50,345.51 C451.05,338.46 468.51,327.86 478.30,321.93 C488.09,316.01 496.75,310.62 497.55,309.96 C498.79,308.93 499.00,298.72 499.00,238.51 L 499.00 168.26 L 515.25 158.28 C524.19,152.80 538.03,144.38 546.00,139.56 C553.97,134.75 566.35,127.21 573.50,122.80 C580.65,118.39 593.03,110.86 601.00,106.07 C608.97,101.27 624.28,91.95 635.00,85.34 C676.95,59.49 700.70,45.05 702.32,44.43 C703.87,43.84 704.00,46.05 704.00,73.48 L 704.00 103.18 L 720.08 134.60 C732.16,158.21 736.95,166.62 739.33,168.43 C741.08,169.76 758.25,180.61 777.50,192.54 C825.50,222.31 833.66,227.35 863.50,245.69 C877.80,254.48 893.66,264.27 898.75,267.44 L 908.00 273.20 L 908.00 501.24 L 919.87 523.87 C926.40,536.32 936.59,555.95 942.51,567.50 C955.64,593.10 965.87,612.97 975.49,631.50 C979.48,639.20 987.59,654.95 993.51,666.50 C999.44,678.05 1004.72,688.06 1005.26,688.75 C1006.01,689.71 1014.41,690.00 1041.12,690.00 L 1076.00 690.00 L 1076.00 706.00 L 933.12 706.00 L 914.43 669.25 C904.15,649.04 893.38,628.00 890.50,622.50 C870.55,584.43 857.00,556.80 857.00,554.20 C857.00,546.76 851.46,521.39 847.01,508.50 C845.87,505.20 844.77,501.83 844.56,501.00 C844.35,500.17 843.86,498.71 843.48,497.75 C843.06,496.69 843.24,496.00 843.95,496.00 C844.59,496.00 844.84,496.45 844.50,497.00 C844.16,497.55 844.39,498.00 845.00,498.00 C845.61,498.00 845.86,498.41 845.55,498.91 C845.24,499.42 845.36,499.98 845.81,500.16 C846.27,500.35 854.21,515.35 863.46,533.50 C872.72,551.65 882.86,571.45 886.01,577.50 C889.16,583.55 902.87,610.33 916.49,637.00 C930.11,663.67 941.88,686.51 942.65,687.75 C944.03,689.97 944.35,690.00 965.02,690.00 C979.34,690.00 986.00,689.66 986.00,688.92 C986.00,688.33 979.08,674.49 970.62,658.17 C962.16,641.85 938.70,596.33 918.49,557.00 C898.28,517.67 874.21,470.88 864.99,453.00 C855.77,435.12 834.97,394.62 818.77,363.00 C724.73,179.47 696.78,125.67 695.52,125.72 C694.68,125.75 669.86,172.65 631.32,247.00 C610.01,288.11 612.68,284.05 602.32,291.01 C597.27,294.40 590.32,299.73 586.88,302.84 L 580.61 308.50 L 590.94 288.50 C596.62,277.50 601.72,267.94 602.26,267.25 C604.70,264.16 601.56,265.96 554.00,295.02 C543.83,301.23 530.89,309.05 525.25,312.38 L 515.00 318.44 L 515.00 374.72 C515.00,411.57 515.35,431.00 516.00,431.00 C516.55,431.00 517.00,430.56 517.00,430.03 C517.00,428.84 548.12,369.78 548.53,370.20 C548.69,370.37 547.78,373.69 546.50,377.59 C543.49,386.82 540.85,403.59 541.10,411.97 C541.28,418.17 540.97,419.18 536.25,428.04 C533.48,433.25 522.66,454.15 512.22,474.50 C501.78,494.85 487.40,522.75 480.27,536.50 C467.00,562.11 459.14,577.39 426.50,641.00 C416.20,661.08 406.75,679.30 405.51,681.50 C404.27,683.70 402.94,686.52 402.55,687.77 L 401.85 690.04 L 445.50 689.50 L 471.50 639.28 C485.80,611.66 497.81,588.77 498.19,588.42 C498.57,588.07 498.62,590.31 498.30,593.38 C497.72,599.05 499.52,613.65 501.03,615.51 C501.51,616.10 492.24,635.21 478.97,661.01 ZM 515.24 238.33 C515.10,271.70 515.27,299.00 515.61,299.00 C515.96,299.00 524.17,294.11 533.87,288.14 C551.80,277.08 583.65,257.65 605.68,244.32 L 617.86 236.95 L 627.79 217.73 C633.24,207.15 648.80,177.27 662.35,151.33 L 687.00 104.15 L 687.00 88.97 C687.00,76.03 686.78,73.87 685.53,74.35 C684.22,74.85 661.90,88.35 617.00,115.81 C608.47,121.02 595.42,128.98 588.00,133.49 C557.96,151.76 528.13,169.92 522.00,173.68 L 515.50 177.67 ZM 418.76 497.57 C418.62,563.80 418.75,618.00 419.05,618.00 C419.35,618.00 423.13,611.14 427.45,602.75 C437.32,583.57 459.10,541.42 481.62,497.91 L 499.00 464.32 L 499.00 397.16 C499.00,349.36 498.69,330.00 497.91,330.00 C496.95,330.00 476.49,342.17 442.50,362.96 C436.45,366.66 428.69,371.36 425.26,373.41 L 419.02 377.14 ZM 885.20 455.75 C888.48,461.94 891.35,467.00 891.58,467.00 C891.81,467.00 892.00,425.58 892.00,374.96 L 892.00 282.92 L 883.25 277.41 C874.51,271.91 867.62,267.65 846.00,254.32 C839.67,250.43 826.17,242.08 816.00,235.76 C763.33,203.09 753.00,196.95 753.00,198.32 C753.00,198.62 760.13,212.73 768.84,229.68 C777.55,246.63 790.89,272.65 798.48,287.50 C838.68,366.11 874.30,435.21 885.20,455.75 Z" fill="rgb(40,42,45)"/>
<path d="M 487.08 645.10 C495.84,627.71 501.40,615.97 501.03,615.51 C499.52,613.65 497.72,599.05 498.30,593.38 C498.62,590.31 498.57,588.07 498.19,588.42 C497.81,588.77 485.80,611.66 471.50,639.28 L 445.50 689.50 L 469.78 642.50 C483.13,616.65 499.68,584.70 506.56,571.50 C513.43,558.30 523.43,538.84 528.77,528.25 C534.11,517.66 538.77,509.00 539.12,509.00 C539.48,509.00 540.01,510.24 540.29,511.75 C541.44,517.82 550.41,540.31 556.99,553.60 C565.51,570.79 575.57,584.56 588.73,597.01 C613.22,620.19 641.87,632.58 675.67,634.60 C716.26,637.04 747.73,618.60 753.21,589.17 C754.73,580.96 753.12,569.27 749.37,561.28 C742.35,546.36 725.83,536.65 687.00,524.63 C679.03,522.16 665.08,517.84 656.00,515.03 C609.22,500.54 586.68,487.73 569.12,465.64 C557.42,450.93 551.75,436.36 548.26,412.00 L 547.47 406.50 L 538.69 423.36 C541.08,418.53 541.24,416.86 541.10,411.97 C540.85,403.59 543.49,386.82 546.50,377.59 C547.78,373.69 548.69,370.37 548.53,370.20 C548.12,369.78 517.00,428.84 517.00,430.03 C517.00,430.56 516.55,431.00 516.00,431.00 C516.55,431.00 517.00,430.55 517.00,430.00 C517.00,429.45 523.12,417.41 530.61,403.25 C538.09,389.09 545.48,375.02 547.03,372.00 C553.30,359.77 580.35,308.30 581.99,305.50 C582.62,304.41 584.91,300.10 587.79,294.60 L 580.61 308.50 L 586.88 302.84 C590.32,299.73 597.27,294.40 602.32,291.01 C609.37,286.28 610.39,286.64 617.01,274.44 L 615.29 277.75 C610.64,286.69 607.04,294.00 607.29,294.00 C607.54,294.00 612.41,291.80 618.12,289.12 C627.91,284.51 640.59,280.48 653.00,278.02 L 658.50 276.94 L 676.50 241.49 C686.40,221.99 694.95,206.16 695.50,206.31 C696.57,206.60 703.07,219.12 742.88,297.52 C756.84,325.01 776.69,363.92 787.01,384.00 C797.32,404.08 822.30,452.90 842.51,492.50 L 844.33 496.07 C844.23,496.02 844.10,496.00 843.95,496.00 C843.24,496.00 843.06,496.69 843.48,497.75 C843.86,498.71 844.35,500.17 844.56,501.00 C844.77,501.83 845.87,505.20 847.01,508.50 C851.46,521.39 857.00,546.76 857.00,554.20 C857.00,555.67 861.34,565.16 868.73,580.03 C860.96,564.78 851.95,547.16 848.00,539.50 C843.74,531.25 823.53,491.65 803.07,451.50 C766.41,379.52 765.80,378.41 759.52,372.33 C749.48,362.61 737.10,355.36 722.50,350.67 C709.13,346.38 703.36,345.56 687.00,345.64 C669.21,345.72 660.79,347.46 648.25,353.65 C623.49,365.89 613.69,391.67 625.03,414.70 C628.91,422.60 636.19,429.17 647.75,435.23 C658.04,440.62 666.92,443.83 696.00,452.64 C733.17,463.91 748.84,469.62 762.00,476.70 C794.98,494.45 813.77,517.56 822.52,551.13 C825.80,563.70 826.95,585.05 825.05,598.04 C820.08,632.04 801.48,661.91 773.82,680.32 C718.19,717.33 633.39,713.95 569.00,672.16 C545.90,657.16 520.51,631.80 509.77,612.99 C508.52,610.81 507.05,609.02 506.50,609.03 C506.04,609.04 497.78,624.42 487.08,645.10 ZM 667.00 688.93 C673.87,689.50 677.22,689.79 680.57,689.80 C683.86,689.81 687.15,689.56 693.80,689.05 L 694.50 688.99 C715.59,687.36 739.41,680.85 754.00,672.73 C776.07,660.44 792.92,642.55 801.13,622.71 C817.71,582.61 809.94,538.39 781.41,510.46 C764.55,493.95 743.45,483.79 698.03,470.34 C648.74,455.74 634.80,449.65 621.58,436.97 C608.22,424.14 603.31,411.63 604.32,393.00 C604.94,381.55 606.23,376.44 610.80,367.41 C619.38,350.46 636.21,338.03 659.00,331.83 C666.56,329.77 669.71,329.51 687.50,329.50 C703.32,329.50 709.07,329.88 715.00,331.30 C723.62,333.36 739.03,338.45 743.18,340.59 C744.73,341.39 746.00,341.73 746.00,341.33 C746.00,340.94 737.82,324.39 727.82,304.56 C717.82,284.73 706.69,262.54 703.08,255.25 C699.47,247.96 696.15,242.12 695.70,242.27 C695.25,242.42 689.46,253.10 682.83,266.02 C676.20,278.93 670.19,290.44 669.46,291.60 C668.41,293.28 666.80,293.81 661.32,294.27 C646.33,295.53 627.01,301.90 612.69,310.31 C603.79,315.54 589.30,329.28 583.54,337.94 C553.55,383.06 558.65,438.92 595.52,469.34 C603.84,476.19 617.94,484.00 632.13,489.60 C638.28,492.02 658.42,498.69 676.90,504.43 C713.58,515.82 725.57,520.28 737.60,527.04 C746.94,532.28 759.17,544.01 763.27,551.68 C769.54,563.37 771.78,582.81 768.48,596.81 C764.51,613.65 752.03,629.85 736.18,638.72 C720.72,647.37 704.32,651.13 682.00,651.13 C657.59,651.13 639.18,646.96 617.07,636.41 C599.81,628.16 590.25,621.27 574.92,606.01 C559.52,590.69 552.34,580.70 543.29,562.06 C540.10,555.50 537.17,550.11 536.77,550.07 C535.95,549.99 516.00,589.41 516.00,591.12 C516.00,591.73 518.07,595.72 520.61,599.98 C540.04,632.64 573.68,660.84 610.50,675.34 C628.08,682.26 649.91,687.51 667.00,688.93 ZM 845.66 498.67 C850.48,508.10 855.20,517.35 859.62,525.99 C852.11,511.39 846.20,500.32 845.81,500.16 C845.36,499.98 845.24,499.42 845.55,498.91 C845.60,498.83 845.64,498.75 845.66,498.67 ZM 536.22 428.10 C530.37,439.37 519.71,460.01 511.23,476.50 C502.48,493.52 489.89,517.93 482.25,532.69 C489.82,518.05 502.67,493.12 512.22,474.50 C522.63,454.22 533.40,433.39 536.22,428.10 ZM 637.96 234.20 C648.73,213.45 658.29,195.13 666.36,179.74 C653.62,204.17 645.74,219.26 637.96,234.20 ZM 844.64 496.67 L 845.35 498.05 C845.25,498.02 845.13,498.00 845.00,498.00 C844.39,498.00 844.16,497.55 844.50,497.00 C844.57,496.88 844.62,496.77 844.64,496.67 ZM 865.64 537.76 C875.78,557.59 883.46,572.57 885.50,576.50 C886.24,577.93 887.48,580.34 889.10,583.50 C887.70,580.77 886.64,578.72 886.01,577.50 C883.11,571.92 874.25,554.65 865.64,537.76 ZM 462.64 692.77 L 456.12 705.50 L 456.09 705.50 ZM 692.06 131.50 C694.16,127.71 695.35,125.73 695.52,125.72 C695.35,125.73 694.11,127.82 692.06,131.50 ZM 889.95 621.46 L 890.50 622.50 C891.94,625.25 895.35,631.88 899.69,640.36 C895.35,631.88 891.94,625.25 890.50,622.50 C890.33,622.19 890.15,621.84 889.95,621.46 Z" fill="rgb(174,91,59)"/>
<path d="M 0.00 382.50 L 0.00 0.00 L 685.00 0.00 L 1370.00 0.00 L 1370.00 382.50 L 1370.00 765.00 L 685.00 765.00 L 0.00 765.00 L 0.00 382.50 ZM 480.81 657.28 C494.39,630.75 505.95,609.04 506.50,609.03 C507.05,609.02 508.52,610.81 509.77,612.99 C520.51,631.80 545.90,657.16 569.00,672.16 C633.39,713.95 718.19,717.33 773.82,680.32 C801.48,661.91 820.08,632.04 825.05,598.04 C826.95,585.05 825.80,563.70 822.52,551.13 C813.77,517.56 794.98,494.45 762.00,476.70 C748.84,469.62 733.17,463.91 696.00,452.64 C666.92,443.83 658.04,440.62 647.75,435.23 C636.19,429.17 628.91,422.60 625.03,414.70 C613.69,391.67 623.49,365.89 648.25,353.65 C660.79,347.46 669.21,345.72 687.00,345.64 C703.36,345.56 709.13,346.38 722.50,350.67 C737.10,355.36 749.48,362.61 759.52,372.33 C765.80,378.41 766.41,379.52 803.07,451.50 C823.53,491.65 843.74,531.25 848.00,539.50 C852.25,547.75 862.38,567.55 870.50,583.50 C878.61,599.45 887.61,617.00 890.50,622.50 C893.38,628.00 904.15,649.04 914.43,669.25 L 933.12 706.00 L 1004.56 706.00 L 1076.00 706.00 L 1076.00 698.00 L 1076.00 690.00 L 1041.12 690.00 C1014.41,690.00 1006.01,689.71 1005.26,688.75 C1004.72,688.06 999.44,678.05 993.51,666.50 C987.59,654.95 979.48,639.20 975.49,631.50 C965.87,612.97 955.64,593.10 942.51,567.50 C936.59,555.95 926.40,536.32 919.87,523.87 L 908.00 501.24 L 908.00 387.22 L 908.00 273.20 L 898.75 267.44 C893.66,264.27 877.80,254.48 863.50,245.69 C833.66,227.35 825.50,222.31 777.50,192.54 C758.25,180.61 741.08,169.76 739.33,168.43 C736.95,166.62 732.16,158.21 720.08,134.60 L 704.00 103.18 L 704.00 73.48 C704.00,46.05 703.87,43.84 702.32,44.43 C700.70,45.05 676.95,59.49 635.00,85.34 C624.28,91.95 608.97,101.27 601.00,106.07 C593.03,110.86 580.65,118.39 573.50,122.80 C566.35,127.21 553.97,134.75 546.00,139.56 C538.03,144.38 524.19,152.80 515.25,158.28 L 499.00 168.26 L 499.00 238.51 C499.00,298.72 498.79,308.93 497.55,309.96 C496.75,310.62 488.09,316.01 478.30,321.93 C468.51,327.86 451.05,338.46 439.50,345.51 C427.95,352.55 414.79,360.52 410.25,363.21 L 402.00 368.12 L 402.00 510.19 L 402.00 652.27 L 392.25 671.13 L 382.50 689.98 L 347.25 689.99 L 312.00 690.00 L 312.00 698.01 L 312.00 706.01 L 384.06 705.76 L 456.12 705.50 L 480.81 657.28 ZM 402.55 687.77 C402.94,686.52 404.27,683.70 405.51,681.50 C406.75,679.30 416.20,661.08 426.50,641.00 C459.68,576.33 467.07,561.97 480.79,535.50 C488.20,521.20 501.90,494.65 511.23,476.50 C520.56,458.35 532.53,435.17 537.83,425.00 L 547.47 406.50 L 548.26 412.00 C551.75,436.36 557.42,450.93 569.12,465.64 C586.68,487.73 609.22,500.54 656.00,515.03 C665.08,517.84 679.03,522.16 687.00,524.63 C725.83,536.65 742.35,546.36 749.37,561.28 C753.12,569.27 754.73,580.96 753.21,589.17 C747.73,618.60 716.26,637.04 675.67,634.60 C641.87,632.58 613.22,620.19 588.73,597.01 C575.57,584.56 565.51,570.79 556.99,553.60 C550.41,540.31 541.44,517.82 540.29,511.75 C540.01,510.24 539.48,509.00 539.12,509.00 C538.77,509.00 534.11,517.66 528.77,528.25 C523.43,538.84 513.43,558.30 506.56,571.50 C499.68,584.70 483.13,616.65 469.78,642.50 L 445.50 689.50 L 423.68 689.77 L 401.85 690.04 L 402.55 687.77 ZM 667.00 688.93 C649.91,687.51 628.08,682.26 610.50,675.34 C573.68,660.84 540.04,632.64 520.61,599.98 C518.07,595.72 516.00,591.73 516.00,591.12 C516.00,589.41 535.95,549.99 536.77,550.07 C537.17,550.11 540.10,555.50 543.29,562.06 C552.34,580.70 559.52,590.69 574.92,606.01 C590.25,621.27 599.81,628.16 617.07,636.41 C639.18,646.96 657.59,651.13 682.00,651.13 C704.32,651.13 720.72,647.37 736.18,638.72 C752.03,629.85 764.51,613.65 768.48,596.81 C771.78,582.81 769.54,563.37 763.27,551.68 C759.17,544.01 746.94,532.28 737.60,527.04 C725.57,520.28 713.58,515.82 676.90,504.43 C658.42,498.69 638.28,492.02 632.13,489.60 C617.94,484.00 603.84,476.19 595.52,469.34 C558.65,438.92 553.55,383.06 583.54,337.94 C589.30,329.28 603.79,315.54 612.69,310.31 C627.01,301.90 646.33,295.53 661.32,294.27 C666.80,293.81 668.41,293.28 669.46,291.60 C670.19,290.44 676.20,278.93 682.83,266.02 C689.46,253.10 695.25,242.42 695.70,242.27 C696.15,242.12 699.47,247.96 703.08,255.25 C706.69,262.54 717.82,284.73 727.82,304.56 C737.82,324.39 746.00,340.94 746.00,341.33 C746.00,341.73 744.73,341.39 743.18,340.59 C739.03,338.45 723.62,333.36 715.00,331.30 C709.07,329.88 703.32,329.50 687.50,329.50 C669.71,329.51 666.56,329.77 659.00,331.83 C636.21,338.03 619.38,350.46 610.80,367.41 C606.23,376.44 604.94,381.55 604.32,393.00 C603.31,411.63 608.22,424.14 621.58,436.97 C634.80,449.65 648.74,455.74 698.03,470.34 C743.45,483.79 764.55,493.95 781.41,510.46 C809.94,538.39 817.71,582.61 801.13,622.71 C792.92,642.55 776.07,660.44 754.00,672.73 C739.41,680.85 715.59,687.36 694.50,688.99 C680.38,690.08 680.86,690.08 667.00,688.93 ZM 942.65 687.75 C941.88,686.51 930.11,663.67 916.49,637.00 C902.87,610.33 888.92,583.10 885.50,576.50 C882.07,569.90 862.73,532.10 842.51,492.50 C822.30,452.90 797.32,404.08 787.01,384.00 C776.69,363.92 756.84,325.01 742.88,297.52 C703.07,219.12 696.57,206.60 695.50,206.31 C694.95,206.16 686.40,221.99 676.50,241.49 L 658.50 276.94 L 653.00 278.02 C640.59,280.48 627.91,284.51 618.12,289.12 C612.41,291.80 607.54,294.00 607.29,294.00 C607.04,294.00 610.64,286.69 615.29,277.75 C636.34,237.29 643.06,224.40 667.99,176.63 C682.59,148.65 694.98,125.74 695.52,125.72 C696.78,125.67 724.73,179.47 818.77,363.00 C834.97,394.62 855.77,435.12 864.99,453.00 C874.21,470.88 898.28,517.67 918.49,557.00 C938.70,596.33 962.16,641.85 970.62,658.17 C979.08,674.49 986.00,688.33 986.00,688.92 C986.00,689.66 979.34,690.00 965.02,690.00 C944.35,690.00 944.03,689.97 942.65,687.75 ZM 418.76 497.57 L 419.02 377.14 L 425.26 373.41 C428.69,371.36 436.45,366.66 442.50,362.96 C476.49,342.17 496.95,330.00 497.91,330.00 C498.69,330.00 499.00,349.36 499.00,397.16 L 499.00 464.32 L 481.62 497.91 C459.10,541.42 437.32,583.57 427.45,602.75 C423.13,611.14 419.35,618.00 419.05,618.00 C418.75,618.00 418.62,563.81 418.76,497.57 ZM 885.20 455.75 C874.30,435.21 838.68,366.11 798.48,287.50 C790.89,272.65 777.55,246.63 768.84,229.68 C760.13,212.73 753.00,198.62 753.00,198.32 C753.00,196.95 763.33,203.09 816.00,235.76 C826.17,242.08 839.67,250.43 846.00,254.32 C867.62,267.65 874.51,271.91 883.25,277.41 L 892.00 282.92 L 892.00 374.96 C892.00,425.58 891.81,467.00 891.58,467.00 C891.35,467.00 888.48,461.94 885.20,455.75 ZM 515.00 374.72 L 515.00 318.44 L 525.25 312.38 C530.89,309.05 543.83,301.23 554.00,295.02 C601.60,265.94 604.67,264.17 602.27,267.25 C601.74,267.94 597.35,276.15 592.52,285.50 C587.69,294.85 582.95,303.85 581.99,305.50 C580.35,308.30 553.30,359.77 547.03,372.00 C545.48,375.02 538.09,389.09 530.61,403.25 C523.12,417.41 517.00,429.45 517.00,430.00 C517.00,430.55 516.55,431.00 516.00,431.00 C515.35,431.00 515.00,411.57 515.00,374.72 ZM 515.24 238.33 L 515.50 177.67 L 522.00 173.68 C528.13,169.92 557.96,151.76 588.00,133.49 C595.42,128.98 608.47,121.02 617.00,115.81 C661.90,88.35 684.22,74.85 685.53,74.35 C686.78,73.87 687.00,76.03 687.00,88.97 L 687.00 104.15 L 662.35 151.33 C648.80,177.27 633.24,207.15 627.79,217.73 L 617.86 236.95 L 605.68 244.32 C583.65,257.65 551.80,277.08 533.87,288.14 C524.17,294.11 515.96,299.00 515.61,299.00 C515.27,299.00 515.10,271.70 515.24,238.33 Z" fill="rgb(245,241,234)"/>
</g>
</svg>