<svg xmlns="http://www.w3.org/2000/svg" width="1370" height="765" viewBox="0 0 1370 765">
<g>
<path d="M 434.50 705.12 C422.40,705.47 389.89,705.80 362.25,705.87 L 312.00 706.00 L 312.00 690.00 L 382.86 690.00 L 392.43 671.61 L 402.00 653.22 L 402.00 368.40 L 422.25 356.25 C486.89,317.48 497.03,311.06 498.08,308.29 C498.61,306.91 499.01,276.40 499.03,237.18 L 499.06 168.50 L 506.28 164.10 C539.44,143.88 551.36,136.61 563.50,129.21 C571.20,124.51 584.70,116.30 593.50,110.96 C602.30,105.62 613.33,98.89 618.00,95.99 C627.08,90.38 639.15,83.01 677.80,59.53 C691.16,51.41 702.41,45.08 702.80,45.46 C703.18,45.85 703.72,59.29 704.00,75.33 L 704.50 104.50 L 717.62 130.00 C738.42,170.41 734.79,165.83 757.26,180.01 C767.84,186.68 784.60,197.14 794.50,203.24 C804.40,209.35 823.75,221.30 837.50,229.81 C851.25,238.32 872.74,251.59 885.25,259.30 L 908.00 273.31 L 908.00 501.23 L 931.62 546.86 C958.45,598.70 967.64,616.51 981.50,643.50 C1002.77,684.91 1004.92,688.74 1007.26,689.37 C1008.49,689.70 1024.46,689.98 1042.75,689.99 L 1076.00 690.00 L 1076.00 706.00 L 933.50 705.96 L 908.50 657.24 C894.75,630.44 877.74,597.04 870.71,583.01 C858.37,558.39 857.87,557.15 856.45,547.54 C854.71,535.69 850.62,518.18 847.35,508.57 C843.28,496.60 844.50,497.04 851.30,510.00 C853.75,514.67 865.31,537.17 877.00,560.00 C888.69,582.83 902.85,610.50 908.49,621.50 C938.18,679.50 943.15,688.84 944.59,689.40 C945.46,689.73 955.13,690.00 966.08,690.00 C981.05,690.00 986.00,689.70 986.00,688.78 C986.00,688.12 971.53,659.43 953.85,625.03 C936.16,590.64 914.07,547.65 904.74,529.50 C880.70,482.70 868.58,459.16 862.00,446.50 C858.86,440.45 850.76,424.70 844.00,411.50 C837.24,398.30 828.35,380.98 824.24,373.00 C796.63,319.49 783.62,294.20 771.50,270.50 C722.63,174.95 696.84,125.89 695.66,126.28 C694.56,126.65 688.46,137.61 673.29,166.50 C666.93,178.60 657.12,197.27 651.48,208.00 C645.85,218.73 637.65,234.48 633.27,243.00 C614.69,279.10 613.14,281.71 607.17,286.98 C604.05,289.72 600.94,291.98 600.25,291.99 C599.56,291.99 599.00,292.46 599.00,293.02 C599.00,293.59 597.90,294.47 596.55,294.98 C595.21,295.49 592.39,297.41 590.30,299.23 C588.21,301.06 585.62,303.22 584.56,304.03 C583.44,304.88 586.95,297.11 592.83,285.72 L 603.06 265.93 L 598.78 268.11 C596.43,269.30 587.75,274.42 579.50,279.48 C571.25,284.54 553.36,295.39 539.75,303.58 L 515.00 318.48 L 515.00 373.16 C515.00,403.23 515.29,428.59 515.64,429.52 C516.09,430.69 518.75,426.52 524.39,415.77 C541.65,382.92 546.53,374.03 547.31,374.01 C547.75,374.01 547.78,374.54 547.37,375.21 C546.96,375.87 546.51,377.48 546.37,378.78 C546.23,380.08 545.63,381.74 545.03,382.46 C544.44,383.18 543.90,385.51 543.83,387.63 C543.77,389.76 543.35,391.98 542.89,392.57 C542.43,393.16 541.81,398.56 541.51,404.57 C540.81,418.65 540.45,420.31 536.54,427.50 C534.74,430.80 528.99,441.83 523.76,452.00 C503.84,490.75 480.57,535.81 476.53,543.50 C474.21,547.90 462.28,571.08 450.01,595.00 C437.75,618.92 422.21,649.09 415.49,662.04 C408.77,674.99 402.95,686.58 402.57,687.79 L 401.87 690.00 L 445.75 690.00 L 466.78 649.25 C468.54,645.84 470.20,642.61 471.77,639.56 C490.89,602.48 496.70,591.22 498.40,591.81 C499.14,592.07 499.10,594.58 499.04,598.19 C499.03,598.87 499.02,599.59 499.02,600.34 C498.91,611.83 498.94,612.09 500.54,613.68 C500.79,613.94 501.04,614.10 501.21,614.32 C502.18,615.60 500.47,618.92 481.95,654.96 C480.66,657.48 479.28,660.15 477.82,663.00 L 456.50 704.50 ZM 515.24 238.32 C515.07,278.51 515.32,299.00 515.99,299.00 C516.93,299.00 521.90,296.02 548.00,279.82 C553.78,276.23 565.03,269.33 573.00,264.49 C580.97,259.65 591.33,253.33 596.00,250.46 C600.67,247.59 607.59,243.50 611.36,241.37 L 618.21 237.50 L 625.23 223.50 C629.09,215.80 644.57,186.01 659.62,157.29 L 687.00 105.08 L 687.00 89.43 C687.00,75.64 686.81,73.86 685.43,74.39 C683.30,75.20 656.30,91.53 602.50,124.52 C565.30,147.34 540.33,162.59 526.50,170.97 L 515.50 177.64 ZM 419.00 497.79 C419.00,600.36 419.21,618.15 420.37,616.47 C421.13,615.39 431.86,594.92 444.23,571.00 C456.59,547.08 473.98,513.49 482.86,496.37 L 499.00 465.23 L 499.00 398.28 C499.00,361.46 498.72,331.05 498.37,330.71 C497.39,329.72 492.25,332.70 434.25,367.88 L 419.00 377.13 ZM 890.26 464.75 C890.80,465.44 891.41,466.00 891.62,466.00 C891.83,466.00 891.99,424.71 891.99,374.25 L 891.98 282.50 L 871.74 269.92 C860.61,263.00 841.69,251.30 829.70,243.92 C817.70,236.54 803.98,228.06 799.20,225.08 C781.87,214.27 754.63,198.00 753.85,198.00 C753.80,198.00 753.75,198.00 753.70,197.99 C753.58,197.98 753.47,197.97 753.41,198.02 C752.74,198.48 755.65,204.15 786.75,264.73 L 790.99 273.00 C801.86,294.17 825.05,339.40 842.51,373.50 C873.39,433.78 888.26,462.19 890.26,464.75 Z" fill="rgb(41,42,45)"/>
<path d="M 884.64 610.53 C870.33,582.62 857.65,557.91 855.36,553.50 C853.93,550.75 853.11,548.83 853.54,549.24 C853.97,549.65 854.86,549.53 855.53,548.97 C856.13,548.48 856.34,547.55 856.13,545.46 C856.24,546.17 856.35,546.86 856.45,547.54 C857.87,557.15 858.37,558.39 870.71,583.01 C873.80,589.17 878.82,599.08 884.64,610.53 ZM 621.34 265.98 C619.32,269.88 617.44,273.50 615.95,276.36 C611.71,284.54 608.04,290.61 607.79,289.87 C607.43,288.78 606.54,288.91 603.42,290.50 C601.26,291.60 599.14,293.06 598.70,293.75 C598.26,294.44 597.31,295.00 596.59,295.00 C596.56,295.00 596.51,295.00 596.47,295.01 C596.50,295.00 596.53,294.99 596.55,294.98 C597.90,294.47 599.00,293.59 599.00,293.02 C599.00,292.46 599.56,291.99 600.25,291.99 C600.94,291.98 604.05,289.72 607.17,286.98 C611.50,283.16 613.50,280.74 621.34,265.98 ZM 541.56 403.54 C541.43,406.91 541.46,410.04 541.76,411.19 C542.16,412.74 542.50,412.83 543.82,411.77 C544.63,411.11 542.27,416.40 538.49,423.71 C540.61,419.15 540.95,415.84 541.51,404.57 C541.53,404.23 541.54,403.88 541.56,403.54 ZM 540.00 511.00 C540.00,511.55 539.55,512.00 539.00,512.00 C538.45,512.00 538.00,511.55 538.00,511.00 C538.00,510.45 538.45,510.00 539.00,510.00 C539.55,510.00 540.00,510.45 540.00,511.00 ZM 933.50 705.96 L 1076.00 706.00 L 1004.75 705.99 L 933.50 705.99 L 930.04 699.23 ZM 535.75 428.97 C530.51,439.01 525.25,449.15 517.32,464.53 C519.48,460.32 521.64,456.12 523.76,452.00 C528.38,443.02 533.40,433.38 535.75,428.97 ZM 851.71 524.00 C850.48,519.08 849.17,514.32 848.02,510.60 C849.22,514.38 850.49,519.06 851.71,524.00 ZM 592.02 297.83 C591.65,298.13 591.27,298.44 590.89,298.77 C589.89,299.63 588.81,300.54 587.81,301.37 C588.64,300.67 589.51,299.93 590.30,299.23 C590.84,298.76 591.43,298.29 592.02,297.83 ZM 487.40 522.55 C482.16,532.68 477.95,540.79 476.53,543.50 C475.35,545.74 471.69,552.82 466.76,562.39 C471.69,552.82 475.35,545.74 476.53,543.50 C477.99,540.72 481.97,533.04 487.40,522.55 ZM 648.31 214.06 C649.42,211.93 650.49,209.89 651.48,208.00 C657.12,197.27 666.93,178.60 673.29,166.50 C666.93,178.60 657.12,197.27 651.48,208.00 C650.50,209.87 649.43,211.91 648.31,214.06 Z" fill="rgb(143,115,103)"/>
<path d="M 621.34 265.98 C621.57,265.54 621.81,265.09 622.05,264.62 C620.27,268.05 618.56,271.36 617.06,274.25 C611.98,284.01 607.98,292.39 608.17,292.88 C608.35,293.37 612.33,292.07 617.02,290.01 C628.30,285.02 640.69,280.97 650.50,279.05 L 658.50 277.48 L 664.85 264.99 C683.59,228.12 694.44,208.00 695.59,208.00 C696.30,208.00 703.49,220.94 711.58,236.75 C761.41,334.26 774.34,359.54 807.37,424.12 C827.52,463.52 844.00,496.33 844.00,497.05 C844.00,497.76 844.64,499.05 845.41,499.92 C845.81,500.37 846.20,500.87 847.07,502.34 C844.23,497.68 844.36,499.77 847.35,508.57 C847.57,509.22 847.79,509.89 848.02,510.60 C849.17,514.32 850.48,519.08 851.71,524.00 C853.47,531.20 855.09,538.99 856.13,545.46 C856.34,547.55 856.13,548.48 855.53,548.97 C854.86,549.53 853.97,549.65 853.54,549.24 C853.40,549.11 853.39,549.21 853.48,549.49 C852.35,547.25 851.40,545.39 850.70,544.00 C846.69,536.03 836.72,516.45 828.56,500.50 C765.95,378.15 766.76,379.66 760.65,373.15 C746.37,357.95 721.22,347.20 696.00,345.52 C684.37,344.74 667.43,346.22 660.08,348.65 C626.02,359.91 611.01,389.21 625.59,415.99 C633.37,430.28 648.59,438.25 697.00,453.38 C715.42,459.14 734.10,465.19 738.50,466.82 C792.32,486.72 820.79,521.00 825.04,570.99 C829.37,621.98 802.48,668.10 755.62,690.06 C737.70,698.45 718.42,703.15 694.01,705.07 C648.89,708.61 595.35,692.49 558.27,664.19 C541.02,651.03 520.06,629.00 511.36,614.90 C509.35,611.65 507.39,609.00 506.99,609.00 C506.04,609.00 503.65,612.72 498.20,623.04 C501.48,616.30 501.74,615.01 501.21,614.32 C501.04,614.10 500.79,613.94 500.54,613.68 C498.94,612.09 498.91,611.83 499.02,600.34 C499.02,599.59 499.03,598.87 499.04,598.19 C499.10,594.58 499.14,592.07 498.40,591.81 C496.70,591.22 490.89,602.48 471.77,639.56 L 471.77 639.56 C470.20,642.61 468.54,645.84 466.78,649.25 L 449.66 682.42 L 460.02 662.25 C467.86,646.99 479.80,623.92 486.56,611.00 C499.18,586.85 522.69,541.19 532.77,521.25 C534.91,517.03 536.91,513.33 538.09,511.41 C538.24,511.75 538.59,512.00 539.00,512.00 C539.42,512.00 539.78,511.74 539.93,511.37 C540.24,512.16 540.57,513.22 540.87,514.39 C544.02,526.92 558.08,557.58 566.82,571.00 C576.54,585.93 592.54,602.20 606.65,611.50 C622.93,622.24 636.63,628.04 655.50,632.17 C669.83,635.31 696.96,635.34 708.20,632.23 C741.51,623.03 759.58,597.45 752.42,569.64 C746.60,547.05 731.94,538.05 670.00,519.02 C612.88,501.47 592.22,491.03 573.82,470.42 C560.12,455.08 553.40,440.44 549.52,417.50 C548.59,412.00 547.69,407.36 547.53,407.20 C547.36,407.03 544.88,411.52 538.43,423.83 C538.45,423.79 538.47,423.75 538.49,423.71 C542.27,416.40 544.63,411.11 543.82,411.77 C542.50,412.83 542.16,412.74 541.76,411.19 C541.46,410.04 541.43,406.91 541.56,403.54 C541.88,397.96 542.45,393.13 542.89,392.57 C543.35,391.98 543.77,389.76 543.83,387.63 C543.90,385.51 544.44,383.18 545.03,382.46 C545.63,381.74 546.23,380.08 546.37,378.78 C546.51,377.48 546.96,375.87 547.37,375.21 C547.78,374.54 547.75,374.01 547.31,374.01 C546.67,374.03 543.30,379.96 532.67,400.05 C534.30,396.97 535.93,393.89 537.45,391.00 C543.12,380.27 551.57,364.08 556.25,355.00 C560.92,345.92 569.45,329.73 575.20,319.00 C580.90,308.37 589.44,292.23 594.26,282.95 L 592.83 285.72 C586.95,297.11 583.44,304.88 584.56,304.03 C585.22,303.52 586.46,302.50 587.81,301.37 C588.81,300.54 589.89,299.63 590.89,298.77 C591.27,298.44 591.65,298.13 592.02,297.83 C593.70,296.55 595.46,295.42 596.47,295.01 C596.51,295.00 596.56,295.00 596.59,295.00 C597.31,295.00 598.26,294.44 598.70,293.75 C599.14,293.06 601.26,291.60 603.42,290.50 C606.54,288.91 607.43,288.78 607.79,289.87 C608.04,290.61 611.71,284.54 615.95,276.36 C617.44,273.50 619.32,269.88 621.34,265.98 ZM 660.50 688.43 C693.32,693.46 736.90,684.90 761.40,668.59 C783.94,653.60 798.82,634.08 805.41,610.89 C816.08,573.33 807.65,537.08 782.25,511.20 C765.88,494.53 746.53,484.77 704.47,471.97 C646.45,454.31 636.42,450.01 622.34,436.68 C615.48,430.19 613.23,427.24 609.78,420.29 C605.67,411.99 605.58,411.59 605.18,399.62 C604.69,384.81 605.87,378.48 611.04,368.21 C619.96,350.47 636.94,337.95 659.96,332.13 C671.84,329.12 704.39,329.03 716.62,331.96 C725.04,333.98 740.23,338.98 743.89,340.94 C745.37,341.73 746.00,341.75 746.00,340.99 C746.00,339.35 697.00,242.00 696.17,242.00 C695.31,242.00 685.49,259.86 677.20,276.50 C668.95,293.09 669.30,292.75 658.24,294.53 C644.07,296.80 634.57,299.71 622.20,305.56 C609.77,311.44 601.53,317.47 592.02,327.64 C580.88,339.55 572.03,356.23 567.28,374.26 C564.94,383.14 564.58,386.49 564.54,399.50 C564.49,416.83 565.86,424.01 571.88,437.97 C580.34,457.58 593.57,470.67 617.23,482.80 C628.38,488.52 640.39,492.90 678.00,504.96 C715.90,517.11 716.63,517.37 730.61,524.07 C740.98,529.03 743.95,531.02 751.20,537.89 C764.99,550.95 769.28,561.50 769.33,582.50 C769.36,595.82 767.79,602.08 761.73,612.82 C757.47,620.37 746.24,632.04 738.65,636.81 C730.63,641.85 718.83,646.54 708.65,648.74 C697.27,651.20 667.19,651.15 654.50,648.66 C635.32,644.89 611.60,634.74 595.50,623.42 C591.65,620.72 582.39,612.43 574.93,605.00 C560.02,590.16 554.23,582.20 543.86,562.26 C540.36,555.52 537.20,550.01 536.82,550.01 C536.16,550.00 525.98,569.42 519.14,583.73 L 515.69 590.96 L 518.76 596.69 C530.12,617.86 552.59,641.57 576.70,657.82 C598.42,672.47 628.78,683.56 660.50,688.43 ZM 943.95 688.83 C944.95,689.34 949.12,689.69 954.48,689.89 C949.01,689.78 945.13,689.60 944.59,689.40 C944.43,689.34 944.23,689.17 943.95,688.83 ZM 976.51 689.92 C982.02,689.72 986.00,689.34 986.00,688.78 C986.00,689.44 983.46,689.78 976.51,689.92 ZM 862.95 532.61 C871.38,549.00 884.14,573.93 903.66,612.07 C896.75,598.58 886.12,577.81 877.00,560.00 C872.07,550.37 867.16,540.81 862.95,532.61 ZM 522.07 420.14 C523.88,416.70 526.88,411.03 530.13,404.87 C528.39,408.17 526.48,411.80 524.39,415.77 C523.55,417.37 522.78,418.83 522.07,420.14 ZM 531.39 437.34 C527.29,445.23 522.28,454.93 516.18,466.73 L 517.32 464.53 L 517.32 464.52 C523.08,453.36 527.43,444.95 531.39,437.34 ZM 539.17 510.01 C539.14,510.01 539.12,510.01 539.09,510.00 C539.10,510.00 539.11,510.00 539.11,510.00 C539.13,510.00 539.15,510.00 539.17,510.01 ZM 515.64 429.51 C515.67,429.56 515.69,429.61 515.73,429.65 C515.69,429.62 515.67,429.57 515.64,429.52 C515.64,429.51 515.64,429.51 515.64,429.51 Z" fill="rgb(171,92,60)"/>
<path d="M 0.00 382.50 L 0.00 0.00 L 685.00 0.00 L 1370.00 0.00 L 1370.00 382.50 L 1370.00 765.00 L 685.00 765.00 L 0.00 765.00 L 0.00 382.50 ZM 434.50 705.12 L 456.50 704.50 L 467.51 683.00 C473.57,671.17 483.67,651.38 489.96,639.00 C501.48,616.35 505.65,609.00 506.99,609.00 C507.39,609.00 509.35,611.65 511.36,614.90 C520.06,629.00 541.02,651.03 558.27,664.19 C595.35,692.49 648.89,708.61 694.01,705.07 C718.42,703.15 737.70,698.45 755.62,690.06 C802.48,668.10 829.37,621.98 825.04,570.99 C820.79,521.00 792.32,486.72 738.50,466.82 C734.10,465.19 715.42,459.14 697.00,453.38 C648.59,438.25 633.37,430.28 625.59,415.99 C611.01,389.21 626.02,359.91 660.08,348.65 C667.43,346.22 684.37,344.74 696.00,345.52 C721.22,347.20 746.37,357.95 760.65,373.15 C766.76,379.66 765.95,378.15 828.56,500.50 C836.72,516.45 846.69,536.03 850.70,544.00 C854.72,551.97 866.67,575.41 877.25,596.07 C887.84,616.73 904.83,649.92 915.00,669.81 L 933.50 705.99 L 1004.75 705.99 L 1076.00 706.00 L 1076.00 698.00 L 1076.00 690.00 L 1042.75 689.99 C1024.46,689.98 1008.49,689.70 1007.26,689.37 C1004.92,688.74 1002.77,684.91 981.50,643.50 C967.64,616.51 958.45,598.70 931.62,546.86 L 908.00 501.23 L 908.00 387.27 L 908.00 273.31 L 885.25 259.30 C872.74,251.59 851.25,238.32 837.50,229.81 C823.75,221.30 804.40,209.35 794.50,203.24 C784.60,197.14 767.84,186.68 757.26,180.01 C734.79,165.83 738.42,170.41 717.62,130.00 L 704.50 104.50 L 704.00 75.33 C703.72,59.29 703.18,45.85 702.80,45.46 C702.41,45.08 691.16,51.41 677.80,59.53 C639.15,83.01 627.08,90.38 618.00,95.99 C613.33,98.89 602.30,105.62 593.50,110.96 C584.70,116.30 571.20,124.51 563.50,129.21 C551.36,136.61 539.44,143.88 506.28,164.10 L 499.06 168.50 L 499.03 237.18 C499.01,276.40 498.61,306.91 498.08,308.29 C497.03,311.06 486.89,317.48 422.25,356.25 L 402.00 368.40 L 402.00 510.81 L 402.00 653.22 L 392.43 671.61 L 382.86 690.00 L 347.43 690.00 L 312.00 690.00 L 312.00 698.00 L 312.00 706.00 L 362.25 705.87 C389.89,705.80 422.40,705.47 434.50,705.12 ZM 402.57 687.79 C402.95,686.58 408.77,674.99 415.49,662.04 C422.21,649.09 437.75,618.92 450.01,595.00 C462.28,571.08 474.21,547.90 476.53,543.50 C478.85,539.10 488.51,520.42 498.00,502.00 C536.11,428.01 547.17,406.84 547.53,407.20 C547.69,407.36 548.59,412.00 549.52,417.50 C553.40,440.44 560.12,455.08 573.82,470.42 C592.22,491.03 612.88,501.47 670.00,519.02 C731.94,538.05 746.60,547.05 752.42,569.64 C759.58,597.45 741.51,623.03 708.20,632.23 C696.96,635.34 669.83,635.31 655.50,632.17 C636.63,628.04 622.93,622.24 606.65,611.50 C592.54,602.20 576.54,585.93 566.82,571.00 C558.08,557.58 544.02,526.92 540.87,514.39 C540.26,511.97 539.47,510.00 539.11,510.00 C538.75,510.00 535.90,515.06 532.77,521.25 C522.69,541.19 499.18,586.85 486.56,611.00 C479.80,623.92 467.86,646.99 460.02,662.25 L 445.77 690.00 L 423.82 690.00 L 401.87 690.00 L 402.57 687.79 ZM 660.50 688.43 C628.78,683.56 598.42,672.47 576.70,657.82 C552.59,641.57 530.12,617.86 518.76,596.69 L 515.69 590.96 L 519.14 583.73 C525.98,569.42 536.16,550.00 536.82,550.01 C537.20,550.01 540.36,555.52 543.86,562.26 C554.23,582.20 560.02,590.16 574.93,605.00 C582.39,612.43 591.65,620.72 595.50,623.42 C611.60,634.74 635.32,644.89 654.50,648.66 C667.19,651.15 697.27,651.20 708.65,648.74 C718.83,646.54 730.63,641.85 738.65,636.81 C746.24,632.04 757.47,620.37 761.73,612.82 C767.79,602.08 769.36,595.82 769.33,582.50 C769.28,561.50 764.99,550.95 751.20,537.89 C743.95,531.02 740.98,529.03 730.61,524.07 C716.63,517.37 715.90,517.11 678.00,504.96 C640.39,492.90 628.38,488.52 617.23,482.80 C593.57,470.67 580.34,457.58 571.88,437.97 C565.86,424.01 564.49,416.83 564.54,399.50 C564.58,386.49 564.94,383.14 567.28,374.26 C572.03,356.23 580.88,339.55 592.02,327.64 C601.53,317.47 609.77,311.44 622.20,305.56 C634.57,299.71 644.07,296.80 658.24,294.53 C669.30,292.75 668.95,293.09 677.20,276.50 C685.49,259.86 695.31,242.00 696.17,242.00 C697.00,242.00 746.00,339.35 746.00,340.99 C746.00,341.75 745.37,341.73 743.89,340.94 C740.23,338.98 725.04,333.98 716.62,331.96 C704.39,329.03 671.84,329.12 659.96,332.13 C636.94,337.95 619.96,350.47 611.04,368.21 C605.87,378.48 604.69,384.81 605.18,399.62 C605.58,411.59 605.67,411.99 609.78,420.29 C613.23,427.24 615.48,430.19 622.34,436.68 C636.42,450.01 646.45,454.31 704.47,471.97 C746.53,484.77 765.88,494.53 782.25,511.20 C807.65,537.08 816.08,573.33 805.41,610.89 C798.82,634.08 783.94,653.60 761.40,668.59 C736.90,684.90 693.32,693.46 660.50,688.43 ZM 943.82 688.75 C942.96,688.06 937.31,677.83 931.25,666.00 C925.20,654.17 915.30,634.83 909.25,623.00 C849.26,505.74 847.39,502.14 845.41,499.92 C844.64,499.05 844.00,497.76 844.00,497.05 C844.00,496.33 827.52,463.52 807.37,424.12 C774.34,359.54 761.41,334.26 711.58,236.75 C703.49,220.94 696.30,208.00 695.59,208.00 C694.44,208.00 683.59,228.12 664.85,264.99 L 658.50 277.48 L 650.50 279.05 C640.69,280.97 628.30,285.02 617.02,290.01 C612.33,292.07 608.35,293.37 608.17,292.88 C607.98,292.39 611.98,284.01 617.06,274.25 C622.13,264.49 629.65,249.98 633.76,242.00 C637.87,234.02 645.85,218.73 651.48,208.00 C657.12,197.27 666.93,178.60 673.29,166.50 C688.46,137.61 694.56,126.65 695.66,126.28 C696.84,125.89 722.63,174.95 771.50,270.50 C783.62,294.20 796.63,319.49 824.24,373.00 C828.35,380.98 837.24,398.30 844.00,411.50 C850.76,424.70 858.86,440.45 862.00,446.50 C868.58,459.16 880.70,482.70 904.74,529.50 C914.07,547.65 936.16,590.64 953.85,625.03 C971.53,659.43 986.00,688.12 986.00,688.78 C986.00,690.55 946.03,690.52 943.82,688.75 ZM 419.00 497.79 L 419.00 377.13 L 434.25 367.88 C492.25,332.70 497.39,329.72 498.37,330.71 C498.72,331.05 499.00,361.46 499.00,398.28 L 499.00 465.23 L 482.86 496.37 C473.98,513.49 456.59,547.08 444.23,571.00 C431.86,594.92 421.13,615.39 420.37,616.47 C419.21,618.15 419.00,600.36 419.00,497.79 ZM 890.26 464.75 C888.26,462.19 873.39,433.78 842.51,373.50 C825.05,339.40 801.86,294.17 790.99,273.00 C750.97,195.03 752.44,198.00 753.85,198.00 C754.63,198.00 781.87,214.27 799.20,225.08 C803.98,228.06 817.70,236.54 829.70,243.92 C841.69,251.30 860.61,263.00 871.74,269.92 L 891.98 282.50 L 891.99 374.25 C891.99,424.71 891.83,466.00 891.62,466.00 C891.41,466.00 890.80,465.44 890.26,464.75 ZM 515.63 429.48 C515.28,428.58 515.00,403.23 515.00,373.16 L 515.00 318.48 L 539.75 303.58 C553.36,295.39 571.25,284.54 579.50,279.48 C587.75,274.42 596.44,269.30 598.82,268.09 L 603.13 265.89 L 594.39 282.70 C589.59,291.94 580.95,308.27 575.20,319.00 C569.45,329.73 560.92,345.92 556.25,355.00 C551.57,364.08 543.12,380.27 537.45,391.00 C531.79,401.73 524.70,415.14 521.71,420.82 C517.90,428.03 516.07,430.64 515.63,429.48 ZM 515.24 238.32 L 515.50 177.64 L 526.50 170.97 C540.33,162.59 565.30,147.34 602.50,124.52 C656.30,91.53 683.30,75.20 685.43,74.39 C686.81,73.86 687.00,75.64 687.00,89.43 L 687.00 105.08 L 659.62 157.29 C644.57,186.01 629.09,215.80 625.23,223.50 L 618.21 237.50 L 611.36 241.37 C607.59,243.50 600.67,247.59 596.00,250.46 C591.33,253.33 580.97,259.65 573.00,264.49 C565.03,269.33 553.78,276.23 548.00,279.82 C521.90,296.02 516.93,299.00 515.99,299.00 C515.32,299.00 515.07,278.51 515.24,238.32 Z" fill="rgb(253,252,251)"/>
</g>
</svg>